/* XPM */
static char *_cb581bd1921471ceb08b20b06f076e4ud9CJjuzCchx2ClO[] = {
/* columns rows colors chars-per-pixel */
"48 53 4 1 ",
"  c None",
". c #F73607",
"X c #8D7411",
"o c #FFB66B",
/* pixels */
"                                                ",
"                ...............                 ",
"                ...............                 ",
"                ...............                 ",
"             ...........................        ",
"             ...........................        ",
"             ...........................        ",
"             XXXXXXXXXooooooXXXooo              ",
"             XXXXXXXXXooooooXXXooo              ",
"             XXXXXXXXXooooooXXXooo              ",
"          XXXoooXXXoooooooooXXXooooooooo        ",
"          XXXoooXXXoooooooooXXXooooooooo        ",
"          XXXoooXXXoooooooooXXXooooooooo        ",
"          XXXoooXXXXXXoooooooooXXXooooooooo     ",
"          XXXoooXXXXXXoooooooooXXXooooooooo     ",
"          XXXoooXXXXXXoooooooooXXXooooooooo     ",
"          XXXXXXooooooooooooXXXXXXXXXXXX        ",
"          XXXXXXooooooooooooXXXXXXXXXXXX        ",
"          XXXXXXooooooooooooXXXXXXXXXXXX        ",
"                ooooooooooooooooooooo           ",
"                ooooooooooooooooooooo           ",
"                ooooooooooooooooooooo           ",
"             XXXXXXXXXXXX...XXX                 ",
"             XXXXXXXXXXXX...XXX                 ",
"             XXXXXXXXXXXX...XXX                 ",
"          XXXXXXXXXXXX............              ",
"          XXXXXXXXXXXX............              ",
"          XXXXXXXXXXXX............              ",
"          oooooooooXXX.........ooo              ",
"          oooooooooXXX.........ooo              ",
"          oooooooooXXX.........ooo              ",
"          oooooo   ...............              ",
"          oooooo   ...............              ",
"          oooooo   ...............              ",
"                XXX............XXX      XXX     ",
"                XXX............XXX      XXX     ",
"                XXX............XXX      XXX     ",
"             XXX............XXX......XXXXXX     ",
"             XXX............XXX......XXXXXX     ",
"             XXX............XXX......XXXXXX     ",
"             XXXXXX......   .........XXXXXX     ",
"             XXXXXX......   .........XXXXXX     ",
"             XXXXXX......   .........XXXXXX     ",
"                XXX...         ......XXXXXX     ",
"                XXX...         ......XXXXXX     ",
"                XXX...         ......XXXXXX     ",
"                                  XXXXXX        ",
"                                  XXXXXX        ",
"                                  XXXXXX        ",
"                                                ",
"                                                ",
"                                                ",
"                                                "
};
