/* XPM */
static char *_1788fe411024892ceb7971e12e62da5RsH4YvzjuQ4fgz9y[] = {
/* columns rows colors chars-per-pixel */
"48 51 4 1 ",
"  c None",
". c #F73607",
"X c #8D7411",
"o c #FFB66B",
/* pixels */
"                                                ",
"                ...............                 ",
"                ...............                 ",
"                ...............                 ",
"             ...........................        ",
"             ...........................        ",
"             ...........................        ",
"             XXXXXXXXXooooooXXXooo              ",
"             XXXXXXXXXooooooXXXooo              ",
"             XXXXXXXXXooooooXXXooo              ",
"          XXXoooXXXoooooooooXXXooooooooo        ",
"          XXXoooXXXoooooooooXXXooooooooo        ",
"          XXXoooXXXoooooooooXXXooooooooo        ",
"          XXXoooXXXXXXoooooooooXXXooooooooo     ",
"          XXXoooXXXXXXoooooooooXXXooooooooo     ",
"          XXXoooXXXXXXoooooooooXXXooooooooo     ",
"          XXXXXXooooooooooooXXXXXXXXXXXX        ",
"          XXXXXXooooooooooooXXXXXXXXXXXX        ",
"          XXXXXXooooooooooooXXXXXXXXXXXX        ",
"                ooooooooooooooooooooo           ",
"                ooooooooooooooooooooo           ",
"                ooooooooooooooooooooo           ",
"                XXXXXX......XXX                 ",
"                XXXXXX......XXX                 ",
"                XXXXXX......XXX                 ",
"                XXXXXXXXXXXX...                 ",
"                XXXXXXXXXXXX...                 ",
"                XXXXXXXXXXXX...                 ",
"                ...XXXXXXXXXoooooo              ",
"                ...XXXXXXXXXoooooo              ",
"                ...XXXXXXXXXoooooo              ",
"                ......XXXoooooo...              ",
"                ......XXXoooooo...              ",
"                ......XXXoooooo...              ",
"          XXXXXX......ooooooooo...              ",
"          XXXXXX......ooooooooo...              ",
"          XXXXXX......ooooooooo...              ",
"          XXX........................   XXX     ",
"          XXX........................   XXX     ",
"          XXX........................   XXX     ",
"          XXXXXX.........      ...XXXXXXXXX     ",
"          XXXXXX.........      ...XXXXXXXXX     ",
"          XXXXXX.........      ...XXXXXXXXX     ",
"             XXXXXX            XXXXXXXXX        ",
"             XXXXXX            XXXXXXXXX        ",
"             XXXXXX            XXXXXXXXX        ",
"                                                ",
"                                                ",
"                                                ",
"                                                ",
"                                                "
};
