/* XPM */
static char *_640d39f706a4509b272d5a74aa7687dDaIiHHOT3nkvInfU[] = {
/* columns rows colors chars-per-pixel */
"48 53 4 1 ",
"  c None",
". c #F73607",
"X c #8D7411",
"o c #FFB66B",
/* pixels */
"                                                ",
"                  ...............               ",
"                  ...............               ",
"                  ...............               ",
"         ...........................            ",
"         ...........................            ",
"         ...........................            ",
"               oooXXXooooooXXXXXXXXX            ",
"               oooXXXooooooXXXXXXXXX            ",
"               oooXXXooooooXXXXXXXXX            ",
"         oooooooooXXXoooooooooXXXoooXXX         ",
"         oooooooooXXXoooooooooXXXoooXXX         ",
"         oooooooooXXXoooooooooXXXoooXXX         ",
"      oooooooooXXXoooooooooXXXXXXoooXXX         ",
"      oooooooooXXXoooooooooXXXXXXoooXXX         ",
"      oooooooooXXXoooooooooXXXXXXoooXXX         ",
"         XXXXXXXXXXXXooooooooooooXXXXXX         ",
"         XXXXXXXXXXXXooooooooooooXXXXXX         ",
"         XXXXXXXXXXXXooooooooooooXXXXXX         ",
"            ooooooooooooooooooooo               ",
"            ooooooooooooooooooooo               ",
"            ooooooooooooooooooooo               ",
"                  XXX...XXXXXXXXXXXX            ",
"                  XXX...XXXXXXXXXXXX            ",
"                  XXX...XXXXXXXXXXXX            ",
"               ............XXXXXXXXXXXX         ",
"               ............XXXXXXXXXXXX         ",
"               ............XXXXXXXXXXXX         ",
"               ooo.........XXXooooooooo         ",
"               ooo.........XXXooooooooo         ",
"               ooo.........XXXooooooooo         ",
"               ...............   oooooo         ",
"               ...............   oooooo         ",
"               ...............   oooooo         ",
"      XXX      XXX............XXX               ",
"      XXX      XXX............XXX               ",
"      XXX      XXX............XXX               ",
"      XXXXXX......XXX............XXX            ",
"      XXXXXX......XXX............XXX            ",
"      XXXXXX......XXX............XXX            ",
"      XXXXXX.........   ......XXXXXX            ",
"      XXXXXX.........   ......XXXXXX            ",
"      XXXXXX.........   ......XXXXXX            ",
"      XXXXXX......         ...XXX               ",
"      XXXXXX......         ...XXX               ",
"      XXXXXX......         ...XXX               ",
"         XXXXXX                                 ",
"         XXXXXX                                 ",
"         XXXXXX                                 ",
"                                                ",
"                                                ",
"                                                ",
"                                                "
};
