/* XPM */
static char *_274146d9f8040bcdaa7772997b43ce0zxyS2FaCb8yF8vJb[] = {
/* columns rows colors chars-per-pixel */
"48 51 4 1 ",
"  c None",
". c #F73607",
"X c #8D7411",
"o c #FFB66B",
/* pixels */
"                                                ",
"                  ...............               ",
"                  ...............               ",
"                  ...............               ",
"         ...........................            ",
"         ...........................            ",
"         ...........................            ",
"               oooXXXooooooXXXXXXXXX            ",
"               oooXXXooooooXXXXXXXXX            ",
"               oooXXXooooooXXXXXXXXX            ",
"         oooooooooXXXoooooooooXXXoooXXX         ",
"         oooooooooXXXoooooooooXXXoooXXX         ",
"         oooooooooXXXoooooooooXXXoooXXX         ",
"      oooooooooXXXoooooooooXXXXXXoooXXX         ",
"      oooooooooXXXoooooooooXXXXXXoooXXX         ",
"      oooooooooXXXoooooooooXXXXXXoooXXX         ",
"         XXXXXXXXXXXXooooooooooooXXXXXX         ",
"         XXXXXXXXXXXXooooooooooooXXXXXX         ",
"         XXXXXXXXXXXXooooooooooooXXXXXX         ",
"            ooooooooooooooooooooo               ",
"            ooooooooooooooooooooo               ",
"            ooooooooooooooooooooo               ",
"                  XXX......XXXXXX               ",
"                  XXX......XXXXXX               ",
"                  XXX......XXXXXX               ",
"                  ...XXXXXXXXXXXX               ",
"                  ...XXXXXXXXXXXX               ",
"                  ...XXXXXXXXXXXX               ",
"               ooooooXXXXXXXXX...               ",
"               ooooooXXXXXXXXX...               ",
"               ooooooXXXXXXXXX...               ",
"               ...ooooooXXX......               ",
"               ...ooooooXXX......               ",
"               ...ooooooXXX......               ",
"               ...ooooooooo......XXXXXX         ",
"               ...ooooooooo......XXXXXX         ",
"               ...ooooooooo......XXXXXX         ",
"      XXX   ........................XXX         ",
"      XXX   ........................XXX         ",
"      XXX   ........................XXX         ",
"      XXXXXXXXX...      .........XXXXXX         ",
"      XXXXXXXXX...      .........XXXXXX         ",
"      XXXXXXXXX...      .........XXXXXX         ",
"         XXXXXXXXX            XXXXXX            ",
"         XXXXXXXXX            XXXXXX            ",
"         XXXXXXXXX            XXXXXX            ",
"                                                ",
"                                                ",
"                                                ",
"                                                ",
"                                                "
};
