/* XPM */
static char *_f21720ccd2543e4e72a1e2b7399e685j8kFAYuL1433GZTU[] = {
/* columns rows colors chars-per-pixel */
"47 51 4 1 ",
"  c None",
". c #F73607",
"X c #8D7411",
"o c #FFB66B",
/* pixels */
"                                               ",
"               ..................              ",
"               ..................              ",
"               ..................              ",
"            ........................           ",
"            ........................           ",
"            ........................           ",
"            XXXXXXXXXXXXXXXXXXXXXXXX           ",
"            XXXXXXXXXXXXXXXXXXXXXXXX           ",
"            XXXXXXXXXXXXXXXXXXXXXXXX           ",
"         XXXXXXXXXXXXXXXXXXXXXXXXXXXXXX        ",
"         XXXXXXXXXXXXXXXXXXXXXXXXXXXXXX        ",
"         XXXXXXXXXXXXXXXXXXXXXXXXXXXXXX        ",
"         XXXXXXXXXXXXXXXXXXXXXXXXXXXXXX        ",
"         XXXXXXXXXXXXXXXXXXXXXXXXXXXXXX        ",
"         XXXXXXXXXXXXXXXXXXXXXXXXXXXXXX        ",
"         XXXXXXXXXXXXXXXXXXXXXXXXXXXXXX        ",
"         XXXXXXXXXXXXXXXXXXXXXXXXXXXXXX        ",
"         XXXXXXXXXXXXXXXXXXXXXXXXXXXXXX        ",
"         XXXXXXXXXXXXXXXXXXXXXXXXXXXXXX        ",
"         XXXXXXXXXXXXXXXXXXXXXXXXXXXXXX        ",
"         XXXXXXXXXXXXXXXXXXXXXXXXXXXXXX        ",
"            XXXooooooooooooooooooXXX           ",
"            XXXooooooooooooooooooXXX           ",
"            XXXooooooooooooooooooXXX           ",
"         XXXXXXXXX...XXXXXX...XXXXXXoooooo     ",
"         XXXXXXXXX...XXXXXX...XXXXXXoooooo     ",
"         XXXXXXXXX...XXXXXX...XXXXXXoooooo     ",
"         ooooooXXX............XXXXXXooooooooo  ",
"         ooooooXXX............XXXXXXooooooooo  ",
"         ooooooXXX............XXXXXXooooooooo  ",
"      oooooooooooo...............XXXXXXoooooo  ",
"      oooooooooooo...............XXXXXXoooooo  ",
"      oooooooooooo...............XXXXXXoooooo  ",
"         oooooo.....................           ",
"         oooooo.....................           ",
"         oooooo.....................           ",
"            ........................           ",
"            ........................           ",
"            ........................           ",
"            ...XXX...      .........XXX        ",
"            ...XXX...      .........XXX        ",
"            ...XXX...      .........XXX        ",
"            XXXXXXXXX         ......XXX        ",
"            XXXXXXXXX         ......XXX        ",
"            XXXXXXXXX         ......XXX        ",
"            XXXXXXXXX         XXXXXXXXX        ",
"            XXXXXXXXX         XXXXXXXXX        ",
"            XXXXXXXXX         XXXXXXXXX        ",
"               XXX            XXXXXX           ",
"               XXX            XXXXXX           "
};
