/* XPM */
static char *b7bd9b777a3c4027b6a25fc4485ddd46nkEwIEMXiisn206g[] = {
/* columns rows colors chars-per-pixel */
"47 53 4 1 ",
"  c None",
". c #F73607",
"X c #8D7411",
"o c #FFB66B",
/* pixels */
"                                               ",
"                                               ",
"                                               ",
"               ..................              ",
"               ..................              ",
"               ..................              ",
"            ........................           ",
"            ........................           ",
"            ........................           ",
"            XXXXXXXXXXXXXXXXXXXXXXXX           ",
"            XXXXXXXXXXXXXXXXXXXXXXXX           ",
"            XXXXXXXXXXXXXXXXXXXXXXXX           ",
"         XXXXXXXXXXXXXXXXXXXXXXXXXXXXXX        ",
"         XXXXXXXXXXXXXXXXXXXXXXXXXXXXXX        ",
"         XXXXXXXXXXXXXXXXXXXXXXXXXXXXXX        ",
"         XXXXXXXXXXXXXXXXXXXXXXXXXXXXXX        ",
"         XXXXXXXXXXXXXXXXXXXXXXXXXXXXXX        ",
"         XXXXXXXXXXXXXXXXXXXXXXXXXXXXXX        ",
"         XXXXXXXXXXXXXXXXXXXXXXXXXXXXXX        ",
"         XXXXXXXXXXXXXXXXXXXXXXXXXXXXXX        ",
"         XXXXXXXXXXXXXXXXXXXXXXXXXXXXXX        ",
"         XXXXXXXXXXXXXXXXXXXXXXXXXXXXXX        ",
"         XXXXXXXXXXXXXXXXXXXXXXXXXXXXXX        ",
"         XXXXXXXXXXXXXXXXXXXXXXXXXXXXXX        ",
"            XXXooooooooooooooooooXXX           ",
"            XXXooooooooooooooooooXXX           ",
"            XXXooooooooooooooooooXXX           ",
"      ooooooXXXXXX...XXXXXX...XXXXXXXXX        ",
"      ooooooXXXXXX...XXXXXX...XXXXXXXXX        ",
"      ooooooXXXXXX...XXXXXX...XXXXXXXXX        ",
"   oooooooooXXXXXX............XXXoooooo        ",
"   oooooooooXXXXXX............XXXoooooo        ",
"   oooooooooXXXXXX............XXXoooooo        ",
"   ooooooXXXXXX...............oooooooooooo     ",
"   ooooooXXXXXX...............oooooooooooo     ",
"   ooooooXXXXXX...............oooooooooooo     ",
"            .....................oooooo        ",
"            .....................oooooo        ",
"            .....................oooooo        ",
"            ........................           ",
"            ........................           ",
"            ........................           ",
"         XXX.........      ...XXX...           ",
"         XXX.........      ...XXX...           ",
"         XXX.........      ...XXX...           ",
"         XXX......         XXXXXXXXX           ",
"         XXX......         XXXXXXXXX           ",
"         XXX......         XXXXXXXXX           ",
"         XXXXXXXXX         XXXXXXXXX           ",
"         XXXXXXXXX         XXXXXXXXX           ",
"         XXXXXXXXX         XXXXXXXXX           ",
"            XXXXXX            XXX              ",
"            XXXXXX            XXX              "
};
