/* XPM */
static char *_d12141375264a41998c347a38ea13f7nPUhIKydIZhlXJMn[] = {
/* columns rows colors chars-per-pixel */
"47 53 4 1 ",
"  c None",
". c #F73607",
"X c #8D7411",
"o c #FFB66B",
/* pixels */
"                                               ",
"                                               ",
"               ..................              ",
"               ..................              ",
"               ..................              ",
"            ........................           ",
"            ........................           ",
"            ........................           ",
"            XXXoooXXXooooooXXXoooXXX           ",
"            XXXoooXXXooooooXXXoooXXX           ",
"            XXXoooXXXooooooXXXoooXXX           ",
"         oooXXXoooXXXooooooXXXoooXXXooo        ",
"         oooXXXoooXXXooooooXXXoooXXXooo        ",
"         oooXXXoooXXXooooooXXXoooXXXooo        ",
"         ooooooXXXooooooooooooXXXoooooo        ",
"         ooooooXXXooooooooooooXXXoooooo        ",
"         ooooooXXXooooooooooooXXXoooooo        ",
"         ooooooXXXXXXooooooXXXXXXoooooo        ",
"         ooooooXXXXXXooooooXXXXXXoooooo        ",
"         ooooooXXXXXXooooooXXXXXXoooooo        ",
"         XXXooooooXXXXXXXXXXXXooooooXXX        ",
"         XXXooooooXXXXXXXXXXXXooooooXXX        ",
"         XXXooooooXXXXXXXXXXXXooooooXXX        ",
"            XXXooooooooooooooooooXXX           ",
"            XXXooooooooooooooooooXXX           ",
"            XXXooooooooooooooooooXXX           ",
"      XXXXXXXXXXXX...XXXXXX...XXXXXXooo        ",
"      XXXXXXXXXXXX...XXXXXX...XXXXXXooo        ",
"      XXXXXXXXXXXX...XXXXXX...XXXXXXooo        ",
"      oooXXXXXXXXX............XXXooooooooo     ",
"      oooXXXXXXXXX............XXXooooooooo     ",
"      oooXXXXXXXXX............XXXooooooooo     ",
"      ooooooXXX...ooo......ooo...ooooooooo     ",
"      ooooooXXX...ooo......ooo...ooooooooo     ",
"      ooooooXXX...ooo......ooo...ooooooooo     ",
"      oooooo.....................XXXooo        ",
"      oooooo.....................XXXooo        ",
"      oooooo.....................XXXooo        ",
"            XXX...............XXXXXX           ",
"            XXX...............XXXXXX           ",
"            XXX...............XXXXXX           ",
"            XXXXXXXXX      XXXXXXXXXXXX        ",
"            XXXXXXXXX      XXXXXXXXXXXX        ",
"            XXXXXXXXX      XXXXXXXXXXXX        ",
"                           XXXXXXXXXXXX        ",
"                           XXXXXXXXXXXX        ",
"                           XXXXXXXXXXXX        ",
"                              XXXXXX           ",
"                              XXXXXX           ",
"                              XXXXXX           ",
"                                               ",
"                                               ",
"                                               "
};
