/* XPM */
static char *_2fb0654605b4869dddb6b86a58a7602ZpC5gZilmdIVCbE4[] = {
/* columns rows colors chars-per-pixel */
"47 51 4 1 ",
"  c None",
". c #F73607",
"X c #8D7411",
"o c #FFB66B",
/* pixels */
"                                               ",
"                                               ",
"                                               ",
"                                               ",
"               ..................              ",
"               ..................              ",
"               ..................              ",
"            ........................           ",
"            ........................           ",
"            ........................           ",
"            XXXoooXXXooooooXXXoooXXX           ",
"            XXXoooXXXooooooXXXoooXXX           ",
"            XXXoooXXXooooooXXXoooXXX           ",
"         oooXXXoooXXXooooooXXXoooXXXooo        ",
"         oooXXXoooXXXooooooXXXoooXXXooo        ",
"         oooXXXoooXXXooooooXXXoooXXXooo        ",
"         ooooooXXXooooooooooooXXXoooooo        ",
"         ooooooXXXooooooooooooXXXoooooo        ",
"         ooooooXXXooooooooooooXXXoooooo        ",
"         ooooooXXXXXXooooooXXXXXXoooooo        ",
"         ooooooXXXXXXooooooXXXXXXoooooo        ",
"         ooooooXXXXXXooooooXXXXXXoooooo        ",
"         XXXooooooXXXXXXXXXXXXooooooXXX        ",
"         XXXooooooXXXXXXXXXXXXooooooXXX        ",
"         XXXooooooXXXXXXXXXXXXooooooXXX        ",
"            XXXooooooooooooooooooXXX           ",
"            XXXooooooooooooooooooXXX           ",
"            XXXooooooooooooooooooXXX           ",
"         oooXXXXXX...XXXXXX...XXXXXXXXXXXX     ",
"         oooXXXXXX...XXXXXX...XXXXXXXXXXXX     ",
"         oooXXXXXX...XXXXXX...XXXXXXXXXXXX     ",
"      oooooooooXXX............XXXXXXXXXooo     ",
"      oooooooooXXX............XXXXXXXXXooo     ",
"      oooooooooXXX............XXXXXXXXXooo     ",
"      ooooooooo...ooo......ooo...XXXoooooo     ",
"      ooooooooo...ooo......ooo...XXXoooooo     ",
"      ooooooooo...ooo......ooo...XXXoooooo     ",
"         oooXXX.....................oooooo     ",
"         oooXXX.....................oooooo     ",
"         oooXXX.....................oooooo     ",
"            XXXXXX...............XXX           ",
"            XXXXXX...............XXX           ",
"            XXXXXX...............XXX           ",
"         XXXXXXXXXXXX      XXXXXXXXX           ",
"         XXXXXXXXXXXX      XXXXXXXXX           ",
"         XXXXXXXXXXXX      XXXXXXXXX           ",
"         XXXXXXXXXXXX                          ",
"         XXXXXXXXXXXX                          ",
"         XXXXXXXXXXXX                          ",
"            XXXXXX                             ",
"            XXXXXX                             "
};
